<?xml version="1.0" encoding="UTF-8" standalone="no"?>
<svg
   width="11.421191mm"
   height="11.518669mm"
   viewBox="0 0 11.421191 11.518669"
   version="1.1"
   id="svg5"
   sodipodi:docname="omega.svg"
   inkscape:version="1.2.1 (9c6d41e410, 2022-07-14)"
   xmlns:inkscape="http://www.inkscape.org/namespaces/inkscape"
   xmlns:sodipodi="http://sodipodi.sourceforge.net/DTD/sodipodi-0.dtd"
   xmlns:xlink="http://www.w3.org/1999/xlink"
   xmlns="http://www.w3.org/2000/svg"
   xmlns:svg="http://www.w3.org/2000/svg">
  <defs
     id="defs14">
    <linearGradient
       inkscape:collect="always"
       id="linearGradient4003">
      <stop
         style="stop-color:#ea6262;stop-opacity:1;"
         offset="0"
         id="stop3999" />
      <stop
         style="stop-color:#f68b6e;stop-opacity:1;"
         offset="1"
         id="stop4001" />
    </linearGradient>
    <linearGradient
       inkscape:collect="always"
       id="linearGradient2404">
      <stop
         style="stop-color:#f68b6e;stop-opacity:1;"
         offset="0"
         id="stop2400" />
      <stop
         style="stop-color:#ffb879;stop-opacity:1;"
         offset="1"
         id="stop2402" />
    </linearGradient>
    <clipPath
       clipPathUnits="userSpaceOnUse"
       id="clipPath3543">
      <rect
         style="fill:#000000;fill-opacity:1;stroke-width:0"
         id="rect3545"
         width="16.656294"
         height="16.842192"
         x="76.365814"
         y="-261.86319"
         transform="scale(1,-1)" />
    </clipPath>
    <clipPath
       clipPathUnits="userSpaceOnUse"
       id="clipPath3543-1">
      <rect
         style="fill:#000000;fill-opacity:1;stroke-width:0"
         id="rect3545-0"
         width="16.656294"
         height="16.842192"
         x="76.365814"
         y="-261.86319"
         transform="scale(1,-1)" />
    </clipPath>
    <linearGradient
       inkscape:collect="always"
       xlink:href="#linearGradient2404"
       id="linearGradient2472"
       x1="84.995178"
       y1="247.2424"
       x2="85.08297"
       y2="258.55426"
       gradientUnits="userSpaceOnUse" />
    <linearGradient
       inkscape:collect="always"
       xlink:href="#linearGradient4003"
       id="linearGradient3256"
       gradientUnits="userSpaceOnUse"
       x1="85.088127"
       y1="250.10521"
       x2="85.08297"
       y2="258.55426" />
  </defs>
  <sodipodi:namedview
     id="namedview12"
     pagecolor="#505050"
     bordercolor="#eeeeee"
     borderopacity="1"
     inkscape:showpageshadow="0"
     inkscape:pageopacity="0"
     inkscape:pagecheckerboard="0"
     inkscape:deskcolor="#505050"
     inkscape:document-units="mm"
     showgrid="false"
     inkscape:zoom="14.017029"
     inkscape:cx="12.912865"
     inkscape:cy="22.044614"
     inkscape:window-width="1920"
     inkscape:window-height="1017"
     inkscape:window-x="-8"
     inkscape:window-y="-8"
     inkscape:window-maximized="1"
     inkscape:current-layer="layer1" />
  <g
     inkscape:label="Layer 1"
     inkscape:groupmode="layer"
     id="layer1"
     transform="translate(-0.09330802)">
    <g
       aria-label="Ω"
       transform="matrix(1.0153975,0,0,-1.0153975,-79.801182,262.53534)"
       id="text234"
       class="fill-override"
       style="fill:url(#linearGradient2472);fill-opacity:1"
       clip-path="url(#clipPath3543-1)">
      <path
         d="m 84.314969,247.21025 q 1.152,0 2.128,0.352 0.992,0.336 1.712,1.008 0.72,0.672 1.12,1.664 0.416,0.976 0.416,2.24 0,2.304 -1.664,4.016 h 1.904 v 2.064 h -4.848 v -1.856 q 0.416,-0.352 0.784,-0.768 0.368,-0.432 0.64,-0.928 0.288,-0.512 0.448,-1.12 0.16,-0.608 0.16,-1.328 0,-1.552 -0.752,-2.368 -0.752,-0.816 -2.048,-0.816 -1.296,0 -2.048,0.816 -0.752,0.816 -0.752,2.368 0,0.72 0.16,1.328 0.16,0.608 0.432,1.12 0.272,0.496 0.64,0.928 0.368,0.416 0.784,0.768 v 1.856 h -4.848 v -2.064 h 1.904 q -1.648,-1.728 -1.648,-4.016 0,-1.264 0.4,-2.24 0.416,-0.992 1.136,-1.664 0.72,-0.672 1.696,-1.008 0.992,-0.352 2.144,-0.352 z"
         class="fill-override"
         id="path4"
         style="fill:url(#linearGradient3256);fill-opacity:1" />
    </g>
  </g>
</svg>
